<svg width="48" height="48" viewBox="0 0 48 48" fill="none" xmlns="http://www.w3.org/2000/svg" xmlns:xlink="http://www.w3.org/1999/xlink">
<path d="M24,4L24,2.4L24,4ZM12,16L10.4,16L12,16ZM6,34L5.112,32.669C4.526,33.06 4.264,33.789 4.469,34.464C4.673,35.138 5.295,35.6 6,35.6L6,34ZM42,34L42,35.6C42.705,35.6 43.327,35.138 43.531,34.464C43.736,33.789 43.474,33.06 42.888,32.669L42,34ZM37.6,16C37.6,12.393 36.167,8.934 33.617,6.383L31.354,8.646C33.304,10.596 34.4,13.242 34.4,16L37.6,16ZM33.617,6.383C31.066,3.833 27.607,2.4 24,2.4L24,5.6C26.758,5.6 29.404,6.696 31.354,8.646L33.617,6.383ZM24,2.4C20.393,2.4 16.934,3.833 14.383,6.383L16.646,8.646C18.596,6.696 21.242,5.6 24,5.6L24,2.4ZM14.383,6.383C11.833,8.934 10.4,12.393 10.4,16L13.6,16C13.6,13.242 14.696,10.596 16.646,8.646L14.383,6.383ZM10.4,16C10.4,22.764 8.953,26.995 7.595,29.484C6.914,30.732 6.248,31.558 5.776,32.056C5.54,32.305 5.351,32.473 5.234,32.572C5.175,32.621 5.133,32.653 5.112,32.668C5.101,32.676 5.096,32.68 5.096,32.68C5.096,32.68 5.097,32.679 5.1,32.677C5.101,32.676 5.103,32.675 5.105,32.674C5.106,32.673 5.107,32.672 5.109,32.671C5.109,32.671 5.11,32.67 5.11,32.67C5.111,32.669 5.112,32.669 6,34C6.888,35.331 6.889,35.331 6.89,35.33C6.89,35.33 6.891,35.329 6.892,35.328C6.894,35.327 6.895,35.326 6.897,35.325C6.901,35.323 6.904,35.32 6.909,35.317C6.917,35.311 6.927,35.304 6.939,35.296C6.961,35.28 6.989,35.26 7.023,35.235C7.09,35.185 7.177,35.117 7.282,35.03C7.492,34.855 7.773,34.601 8.099,34.257C8.752,33.567 9.586,32.518 10.405,31.016C12.047,28.005 13.6,23.236 13.6,16L10.4,16ZM6,35.6L42,35.6L42,32.4L6,32.4L6,35.6ZM42,34C42.888,32.669 42.889,32.669 42.89,32.67C42.89,32.67 42.891,32.671 42.891,32.671C42.893,32.672 42.894,32.673 42.895,32.674C42.897,32.675 42.899,32.676 42.9,32.677C42.903,32.679 42.904,32.68 42.904,32.68C42.904,32.68 42.899,32.676 42.888,32.668C42.867,32.653 42.825,32.621 42.766,32.572C42.649,32.473 42.46,32.305 42.224,32.056C41.752,31.558 41.086,30.732 40.405,29.484C39.047,26.995 37.6,22.764 37.6,16L34.4,16C34.4,23.236 35.953,28.005 37.595,31.016C38.414,32.518 39.248,33.567 39.901,34.257C40.227,34.601 40.508,34.855 40.718,35.03C40.823,35.117 40.91,35.185 40.977,35.235C41.011,35.26 41.039,35.28 41.061,35.296C41.073,35.304 41.083,35.311 41.091,35.317C41.096,35.32 41.099,35.323 41.103,35.325C41.105,35.326 41.106,35.327 41.108,35.328C41.109,35.329 41.11,35.33 41.11,35.33C41.111,35.331 41.112,35.331 42,34Z" fill="#201B51"/>
<path d="M28.844,42.803C29.287,42.038 29.027,41.059 28.263,40.616C27.499,40.173 26.519,40.433 26.076,41.197L28.844,42.803ZM21.924,41.197C21.481,40.433 20.502,40.173 19.737,40.616C18.973,41.059 18.713,42.038 19.156,42.803L21.924,41.197ZM26.076,41.197C25.865,41.561 25.562,41.863 25.198,42.073L26.795,44.846C27.645,44.356 28.352,43.651 28.844,42.803L26.076,41.197ZM25.198,42.073C24.834,42.282 24.42,42.393 24,42.393L24,45.593C24.981,45.593 25.945,45.335 26.795,44.846L25.198,42.073ZM24,42.393C23.58,42.393 23.166,42.282 22.802,42.073L21.205,44.846C22.055,45.335 23.019,45.593 24,45.593L24,42.393ZM22.802,42.073C22.438,41.863 22.135,41.561 21.924,41.197L19.156,42.803C19.648,43.651 20.355,44.356 21.205,44.846L22.802,42.073Z" fill="#201B51"/>
</svg>
