<svg width="32" height="32" viewBox="0 0 32 32" fill="none" xmlns="http://www.w3.org/2000/svg" xmlns:xlink="http://www.w3.org/1999/xlink">
<line x1="13.4" y1="0.333" x2="13.4" y2="29.667" stroke="#1E8DEB" stroke-width="1.6" stroke-miterlimit="3.999327" stroke-linecap="round" stroke-linejoin="round"/>
<path d="M21.667,7.267C22.55,7.267 23.267,6.55 23.267,5.667C23.267,4.783 22.55,4.067 21.667,4.067L21.667,7.267ZM7,10.333L5.4,10.333L7,10.333ZM11.667,15L11.667,16.6L11.667,15ZM18.333,15L18.333,13.4L18.333,13.4L18.333,15ZM18.333,24.333L18.333,25.933L18.333,25.933L18.333,24.333ZM7,22.733C6.116,22.733 5.4,23.45 5.4,24.333C5.4,25.217 6.116,25.933 7,25.933L7,22.733ZM21.667,4.067L11.667,4.067L11.667,7.267L21.667,7.267L21.667,4.067ZM11.667,4.067C10.005,4.067 8.411,4.727 7.235,5.902L9.498,8.165C10.073,7.59 10.853,7.267 11.667,7.267L11.667,4.067ZM7.235,5.902C6.06,7.077 5.4,8.671 5.4,10.333L8.6,10.333C8.6,9.52 8.923,8.74 9.498,8.165L7.235,5.902ZM5.4,10.333C5.4,11.995 6.06,13.589 7.235,14.764L9.498,12.502C8.923,11.927 8.6,11.147 8.6,10.333L5.4,10.333ZM7.235,14.764C8.411,15.94 10.005,16.6 11.667,16.6L11.667,13.4C10.853,13.4 10.073,13.077 9.498,12.502L7.235,14.764ZM11.667,16.6L18.333,16.6L18.333,13.4L11.667,13.4L11.667,16.6ZM18.333,16.6C19.147,16.6 19.927,16.923 20.502,17.498L22.765,15.235C21.589,14.06 19.995,13.4 18.333,13.4L18.333,16.6ZM20.502,17.498C21.077,18.073 21.4,18.853 21.4,19.667L24.6,19.667C24.6,18.004 23.94,16.411 22.765,15.235L20.502,17.498ZM21.4,19.667C21.4,20.48 21.077,21.26 20.502,21.835L22.765,24.098C23.94,22.922 24.6,21.329 24.6,19.667L21.4,19.667ZM20.502,21.835C19.927,22.41 19.147,22.733 18.333,22.733L18.333,25.933C19.995,25.933 21.589,25.273 22.765,24.098L20.502,21.835ZM18.333,22.733L7,22.733L7,25.933L18.333,25.933L18.333,22.733Z" fill="#1E8DEB"/>
</svg>
