<svg width="32" height="32" viewBox="0 0 32 32" fill="none" xmlns="http://www.w3.org/2000/svg" xmlns:xlink="http://www.w3.org/1999/xlink">
<path d="M29.6,20C29.6,19.116 28.884,18.4 28,18.4C27.116,18.4 26.4,19.116 26.4,20L29.6,20ZM4,25.333L2.4,25.333L4,25.333ZM5.6,20C5.6,19.116 4.884,18.4 4,18.4C3.116,18.4 2.4,19.116 2.4,20L5.6,20ZM26.4,20L26.4,25.333L29.6,25.333L29.6,20L26.4,20ZM26.4,25.333C26.4,25.616 26.288,25.888 26.088,26.088L28.35,28.35C29.15,27.55 29.6,26.465 29.6,25.333L26.4,25.333ZM26.088,26.088C25.888,26.288 25.616,26.4 25.333,26.4L25.333,29.6C26.465,29.6 27.55,29.15 28.35,28.35L26.088,26.088ZM25.333,26.4L6.667,26.4L6.667,29.6L25.333,29.6L25.333,26.4ZM6.667,26.4C6.384,26.4 6.112,26.288 5.912,26.088L3.65,28.35C4.45,29.15 5.535,29.6 6.667,29.6L6.667,26.4ZM5.912,26.088C5.712,25.888 5.6,25.616 5.6,25.333L2.4,25.333C2.4,26.465 2.85,27.55 3.65,28.35L5.912,26.088ZM5.6,25.333L5.6,20L2.4,20L2.4,25.333L5.6,25.333Z" fill="#1E8DEB"/>
<path d="M10.465,12.202C9.84,11.577 8.827,11.577 8.202,12.202C7.577,12.827 7.577,13.84 8.202,14.465L10.465,12.202ZM16,20L14.869,21.132C15.169,21.432 15.576,21.6 16,21.6C16.424,21.6 16.831,21.432 17.131,21.132L16,20ZM23.798,14.465C24.423,13.84 24.423,12.827 23.798,12.202C23.173,11.577 22.16,11.577 21.535,12.202L23.798,14.465ZM8.202,14.465L14.869,21.132L17.131,18.869L10.465,12.202L8.202,14.465ZM17.131,21.132L23.798,14.465L21.535,12.202L14.869,18.869L17.131,21.132Z" fill="#1E8DEB"/>
<line x1="14.4" y1="4" x2="14.4" y2="20" stroke="#1E8DEB" stroke-width="1.6" stroke-miterlimit="3.999327" stroke-linecap="round" stroke-linejoin="round"/>
</svg>
