<svg width="34" height="32" viewBox="0 0 34 32" fill="none" xmlns="http://www.w3.org/2000/svg" xmlns:xlink="http://www.w3.org/1999/xlink">
<path d="M1.333,16L-0.098,15.285C-0.323,15.735 -0.323,16.265 -0.098,16.716L1.333,16ZM30.667,16L32.098,16.716C32.323,16.265 32.323,15.735 32.098,15.285L30.667,16ZM1.333,16C2.764,16.716 2.764,16.716 2.764,16.717C2.764,16.717 2.764,16.717 2.764,16.717C2.763,16.718 2.763,16.718 2.763,16.718C2.763,16.718 2.764,16.717 2.764,16.716C2.765,16.713 2.768,16.708 2.772,16.701C2.779,16.686 2.792,16.662 2.81,16.629C2.845,16.562 2.9,16.459 2.975,16.326C3.125,16.06 3.353,15.671 3.656,15.202C4.265,14.259 5.166,13.007 6.334,11.761C8.699,9.238 11.972,6.933 16,6.933L16,3.733C10.694,3.733 6.634,6.762 3.999,9.573C2.668,10.993 1.652,12.408 0.968,13.465C0.626,13.996 0.364,14.441 0.186,14.757C0.097,14.916 0.029,15.042 -0.019,15.132C-0.042,15.177 -0.061,15.212 -0.074,15.238C-0.081,15.251 -0.086,15.261 -0.09,15.269C-0.092,15.273 -0.094,15.276 -0.095,15.279C-0.096,15.28 -0.096,15.281 -0.097,15.282C-0.097,15.283 -0.097,15.283 -0.097,15.284C-0.098,15.284 -0.098,15.285 1.333,16ZM16,6.933C20.027,6.933 23.3,9.238 25.666,11.761C26.834,13.007 27.735,14.259 28.343,15.202C28.647,15.671 28.875,16.06 29.025,16.326C29.1,16.459 29.155,16.562 29.19,16.629C29.208,16.662 29.22,16.686 29.228,16.701C29.232,16.708 29.234,16.713 29.236,16.716C29.236,16.717 29.236,16.718 29.236,16.718C29.236,16.718 29.236,16.718 29.236,16.717C29.236,16.717 29.236,16.717 29.236,16.717C29.236,16.716 29.235,16.716 30.667,16C32.098,15.285 32.097,15.284 32.097,15.284C32.097,15.283 32.097,15.283 32.096,15.282C32.096,15.281 32.095,15.28 32.095,15.279C32.093,15.276 32.092,15.273 32.09,15.269C32.086,15.261 32.081,15.251 32.074,15.238C32.061,15.212 32.042,15.177 32.019,15.132C31.971,15.042 31.903,14.916 31.814,14.757C31.636,14.441 31.374,13.996 31.031,13.465C30.348,12.408 29.332,10.993 28,9.573C25.366,6.762 21.306,3.733 16,3.733L16,6.933ZM30.667,16C29.235,15.285 29.236,15.284 29.236,15.284C29.236,15.284 29.236,15.283 29.236,15.283C29.236,15.283 29.236,15.283 29.236,15.283C29.236,15.283 29.236,15.283 29.236,15.284C29.234,15.287 29.232,15.292 29.228,15.299C29.22,15.314 29.208,15.338 29.19,15.372C29.155,15.438 29.1,15.541 29.025,15.674C28.875,15.941 28.647,16.329 28.343,16.799C27.735,17.741 26.834,18.993 25.666,20.239C23.3,22.762 20.027,25.067 16,25.067L16,28.267C21.306,28.267 25.366,25.238 28,22.428C29.332,21.007 30.348,19.593 31.031,18.535C31.374,18.004 31.636,17.56 31.814,17.243C31.903,17.084 31.971,16.958 32.019,16.868C32.042,16.824 32.061,16.788 32.074,16.762C32.081,16.749 32.086,16.739 32.09,16.731C32.092,16.727 32.093,16.724 32.095,16.722C32.095,16.72 32.096,16.719 32.096,16.718C32.097,16.718 32.097,16.717 32.097,16.717C32.097,16.716 32.098,16.716 30.667,16ZM16,25.067C11.972,25.067 8.699,22.762 6.334,20.239C5.166,18.993 4.265,17.741 3.656,16.799C3.353,16.329 3.125,15.941 2.975,15.674C2.9,15.541 2.845,15.438 2.81,15.372C2.792,15.338 2.779,15.314 2.772,15.299C2.768,15.292 2.765,15.287 2.764,15.284C2.764,15.283 2.763,15.283 2.763,15.283C2.763,15.283 2.763,15.283 2.764,15.283C2.764,15.283 2.764,15.284 2.764,15.284C2.764,15.284 2.764,15.285 1.333,16C-0.098,16.716 -0.098,16.716 -0.097,16.717C-0.097,16.717 -0.097,16.718 -0.097,16.718C-0.096,16.719 -0.096,16.72 -0.095,16.722C-0.094,16.724 -0.092,16.727 -0.09,16.731C-0.086,16.739 -0.081,16.749 -0.074,16.762C-0.061,16.788 -0.042,16.824 -0.019,16.868C0.029,16.958 0.097,17.084 0.186,17.243C0.364,17.56 0.626,18.004 0.968,18.535C1.652,19.593 2.668,21.007 3.999,22.428C6.634,25.238 10.694,28.267 16,28.267L16,25.067Z" fill="#1E8DEB"/>
<path d="M18.4,16C18.4,17.325 17.325,18.4 16,18.4L16,21.6C19.093,21.6 21.6,19.093 21.6,16L18.4,16ZM16,18.4C14.675,18.4 13.6,17.325 13.6,16L10.4,16C10.4,19.093 12.907,21.6 16,21.6L16,18.4ZM13.6,16C13.6,14.675 14.675,13.6 16,13.6L16,10.4C12.907,10.4 10.4,12.907 10.4,16L13.6,16ZM16,13.6C17.325,13.6 18.4,14.675 18.4,16L21.6,16C21.6,12.907 19.093,10.4 16,10.4L16,13.6Z" fill="#1E8DEB"/>
</svg>
