<svg width="36" height="36" viewBox="0 0 36 36" fill="none" xmlns="http://www.w3.org/2000/svg" xmlns:xlink="http://www.w3.org/1999/xlink">
<path d="M21,2L22.131,0.869C21.831,0.569 21.424,0.4 21,0.4L21,2ZM9,2L9,0.4L9,2ZM6,5L4.4,5L6,5ZM6,29L4.4,29L6,29ZM30,11L31.6,11C31.6,10.576 31.431,10.169 31.131,9.869L30,11ZM21,0.4L9,0.4L9,3.6L21,3.6L21,0.4ZM9,0.4C7.78,0.4 6.61,0.885 5.747,1.747L8.01,4.01C8.273,3.747 8.629,3.6 9,3.6L9,0.4ZM5.747,1.747C4.885,2.61 4.4,3.78 4.4,5L7.6,5C7.6,4.629 7.747,4.273 8.01,4.01L5.747,1.747ZM4.4,5L4.4,29L7.6,29L7.6,5L4.4,5ZM4.4,29C4.4,30.22 4.885,31.39 5.747,32.253L8.01,29.99C7.747,29.727 7.6,29.371 7.6,29L4.4,29ZM5.747,32.253C6.61,33.115 7.78,33.6 9,33.6L9,30.4C8.629,30.4 8.273,30.253 8.01,29.99L5.747,32.253ZM9,33.6L27,33.6L27,30.4L9,30.4L9,33.6ZM27,33.6C28.22,33.6 29.39,33.115 30.253,32.253L27.99,29.99C27.727,30.253 27.371,30.4 27,30.4L27,33.6ZM30.253,32.253C31.115,31.39 31.6,30.22 31.6,29L28.4,29C28.4,29.371 28.253,29.727 27.99,29.99L30.253,32.253ZM31.6,29L31.6,11L28.4,11L28.4,29L31.6,29ZM31.131,9.869L22.131,0.869L19.869,3.131L28.869,12.131L31.131,9.869Z" fill="#4BA4EF"/>
<path d="M22.6,2C22.6,1.116 21.884,0.4 21,0.4C20.116,0.4 19.4,1.116 19.4,2L22.6,2ZM21,11L19.4,11C19.4,11.884 20.116,12.6 21,12.6L21,11ZM30,12.6C30.884,12.6 31.6,11.884 31.6,11C31.6,10.116 30.884,9.4 30,9.4L30,12.6ZM19.4,2L19.4,11L22.6,11L22.6,2L19.4,2ZM21,12.6L30,12.6L30,9.4L21,9.4L21,12.6Z" fill="#4BA4EF"/>
<path d="M24,20.1C24.884,20.1 25.6,19.384 25.6,18.5C25.6,17.616 24.884,16.9 24,16.9L24,20.1ZM12,16.9C11.116,16.9 10.4,17.616 10.4,18.5C10.4,19.384 11.116,20.1 12,20.1L12,16.9ZM24,26.1C24.884,26.1 25.6,25.384 25.6,24.5C25.6,23.616 24.884,22.9 24,22.9L24,26.1ZM12,22.9C11.116,22.9 10.4,23.616 10.4,24.5C10.4,25.384 11.116,26.1 12,26.1L12,22.9ZM15,14.1C15.884,14.1 16.6,13.384 16.6,12.5C16.6,11.616 15.884,10.9 15,10.9L15,14.1ZM12,10.9C11.116,10.9 10.4,11.616 10.4,12.5C10.4,13.384 11.116,14.1 12,14.1L12,10.9ZM24,16.9L12,16.9L12,20.1L24,20.1L24,16.9ZM24,22.9L12,22.9L12,26.1L24,26.1L24,22.9ZM15,10.9L12,10.9L12,14.1L15,14.1L15,10.9Z" fill="#4BA4EF"/>
</svg>
