<svg width="34" height="32" viewBox="0 0 34 32" fill="none" xmlns="http://www.w3.org/2000/svg" xmlns:xlink="http://www.w3.org/1999/xlink">
<path d="M2.6,13.4L1.589,12.159C1.065,12.587 0.866,13.299 1.093,13.936C1.32,14.574 1.923,15 2.6,15L2.6,13.4ZM17,1.667L18.011,0.426C17.422,-0.053 16.578,-0.053 15.989,0.426L17,1.667ZM31.4,13.4L31.4,15C32.077,15 32.681,14.574 32.907,13.936C33.134,13.299 32.935,12.587 32.411,12.159L31.4,13.4ZM5,25.667L3.4,25.667L5,25.667ZM29,13.4L29,11.8C28.116,11.8 27.4,12.516 27.4,13.4L29,13.4ZM5,13.4L6.6,13.4C6.6,12.516 5.884,11.8 5,11.8L5,13.4ZM3.611,14.64L18.011,2.907L15.989,0.426L1.589,12.159L3.611,14.64ZM15.989,2.907L30.389,14.64L32.411,12.159L18.011,0.426L15.989,2.907ZM27.4,25.667C27.4,25.949 27.288,26.221 27.088,26.421L29.35,28.684C30.15,27.883 30.6,26.798 30.6,25.667L27.4,25.667ZM27.088,26.421C26.888,26.621 26.616,26.733 26.333,26.733L26.333,29.933C27.465,29.933 28.55,29.484 29.35,28.684L27.088,26.421ZM26.333,26.733L7.667,26.733L7.667,29.933L26.333,29.933L26.333,26.733ZM7.667,26.733C7.384,26.733 7.112,26.621 6.912,26.421L4.65,28.684C5.45,29.484 6.535,29.933 7.667,29.933L7.667,26.733ZM6.912,26.421C6.712,26.221 6.6,25.949 6.6,25.667L3.4,25.667C3.4,26.798 3.85,27.883 4.65,28.684L6.912,26.421ZM31.4,11.8L29,11.8L29,15L31.4,15L31.4,11.8ZM27.4,13.4L27.4,25.667L30.6,25.667L30.6,13.4L27.4,13.4ZM6.6,25.667L6.6,13.4L3.4,13.4L3.4,25.667L6.6,25.667ZM5,11.8L2.6,11.8L2.6,15L5,15L5,11.8Z" fill="#1E8DEB"/>
<path d="M11.4,28.333C11.4,29.217 12.116,29.933 13,29.933C13.884,29.933 14.6,29.217 14.6,28.333L11.4,28.333ZM13,15L13,13.4C12.116,13.4 11.4,14.116 11.4,15L13,15ZM21,15L22.6,15C22.6,14.116 21.884,13.4 21,13.4L21,15ZM19.4,28.333C19.4,29.217 20.116,29.933 21,29.933C21.884,29.933 22.6,29.217 22.6,28.333L19.4,28.333ZM14.6,28.333L14.6,15L11.4,15L11.4,28.333L14.6,28.333ZM13,16.6L21,16.6L21,13.4L13,13.4L13,16.6ZM19.4,15L19.4,28.333L22.6,28.333L22.6,15L19.4,15Z" fill="#1E8DEB"/>
</svg>
