<svg width="32" height="32" viewBox="0 0 32 32" fill="none" xmlns="http://www.w3.org/2000/svg" xmlns:xlink="http://www.w3.org/1999/xlink">
<path d="M3.8,2.2L4.931,1.069C4.474,0.611 3.786,0.474 3.188,0.722C2.59,0.97 2.2,1.553 2.2,2.2L3.8,2.2ZM26.2,2.2L27.8,2.2C27.8,1.553 27.41,0.97 26.812,0.722C26.214,0.474 25.526,0.611 25.069,1.069L26.2,2.2ZM26.2,27.8L25.069,28.932C25.526,29.389 26.214,29.526 26.812,29.278C27.41,29.031 27.8,28.447 27.8,27.8L26.2,27.8ZM3.8,27.8L2.2,27.8C2.2,28.447 2.59,29.031 3.188,29.278C3.786,29.526 4.474,29.389 4.931,28.932L3.8,27.8ZM15,3.8L14.112,5.131C14.65,5.49 15.35,5.49 15.888,5.131L15,3.8ZM17.4,2.2L18.288,0.869C17.75,0.511 17.05,0.511 16.512,0.869L17.4,2.2ZM19.8,3.8L18.912,5.131C19.45,5.49 20.15,5.49 20.688,5.131L19.8,3.8ZM22.2,2.2L23.088,0.869C22.55,0.511 21.85,0.511 21.312,0.869L22.2,2.2ZM24.6,3.8L23.712,5.131C24.347,5.555 25.192,5.471 25.731,4.932L24.6,3.8ZM12.6,2.2L13.488,0.869C12.95,0.511 12.25,0.511 11.712,0.869L12.6,2.2ZM10.2,3.8L9.312,5.131C9.85,5.49 10.55,5.49 11.088,5.131L10.2,3.8ZM7.8,2.2L8.688,0.869C8.15,0.511 7.45,0.511 6.912,0.869L7.8,2.2ZM5.4,3.8L4.269,4.932C4.808,5.471 5.653,5.555 6.288,5.131L5.4,3.8ZM15,26.2L15.888,24.869C15.35,24.511 14.65,24.511 14.112,24.869L15,26.2ZM17.4,27.8L16.512,29.131C17.05,29.49 17.75,29.49 18.288,29.131L17.4,27.8ZM19.8,26.2L20.688,24.869C20.15,24.511 19.45,24.511 18.912,24.869L19.8,26.2ZM22.2,27.8L21.312,29.131C21.85,29.49 22.55,29.49 23.088,29.131L22.2,27.8ZM24.6,26.2L25.731,25.069C25.192,24.53 24.347,24.446 23.712,24.869L24.6,26.2ZM5.4,26.2L6.288,24.869C5.653,24.446 4.808,24.53 4.269,25.069L5.4,26.2ZM7.8,27.8L6.912,29.131C7.45,29.49 8.15,29.49 8.688,29.131L7.8,27.8ZM10.2,26.2L11.088,24.869C10.55,24.511 9.85,24.511 9.312,24.869L10.2,26.2ZM12.6,27.8L11.712,29.131C12.25,29.49 12.95,29.49 13.488,29.131L12.6,27.8ZM24.6,2.2L24.6,27.8L27.8,27.8L27.8,2.2L24.6,2.2ZM5.4,27.8L5.4,2.2L2.2,2.2L2.2,27.8L5.4,27.8ZM15.888,5.131L18.288,3.531L16.512,0.869L14.112,2.469L15.888,5.131ZM16.512,3.531L18.912,5.131L20.688,2.469L18.288,0.869L16.512,3.531ZM20.688,5.131L23.088,3.531L21.312,0.869L18.912,2.469L20.688,5.131ZM21.312,3.531L23.712,5.131L25.488,2.469L23.088,0.869L21.312,3.531ZM25.731,4.932L27.331,3.332L25.069,1.069L23.469,2.669L25.731,4.932ZM11.712,3.531L14.112,5.131L15.888,2.469L13.488,0.869L11.712,3.531ZM11.088,5.131L13.488,3.531L11.712,0.869L9.312,2.469L11.088,5.131ZM6.912,3.531L9.312,5.131L11.088,2.469L8.688,0.869L6.912,3.531ZM2.669,3.332L4.269,4.932L6.531,2.669L4.931,1.069L2.669,3.332ZM6.288,5.131L8.688,3.531L6.912,0.869L4.512,2.469L6.288,5.131ZM18.288,26.469L15.888,24.869L14.112,27.531L16.512,29.131L18.288,26.469ZM18.912,24.869L16.512,26.469L18.288,29.131L20.688,27.531L18.912,24.869ZM23.088,26.469L20.688,24.869L18.912,27.531L21.312,29.131L23.088,26.469ZM27.331,26.669L25.731,25.069L23.469,27.332L25.069,28.932L27.331,26.669ZM23.712,24.869L21.312,26.469L23.088,29.131L25.488,27.531L23.712,24.869ZM4.269,25.069L2.669,26.669L4.931,28.932L6.531,27.332L4.269,25.069ZM8.688,26.469L6.288,24.869L4.512,27.531L6.912,29.131L8.688,26.469ZM9.312,24.869L6.912,26.469L8.688,29.131L11.088,27.531L9.312,24.869ZM14.112,24.869L11.712,26.469L13.488,29.131L15.888,27.531L14.112,24.869ZM13.488,26.469L11.088,24.869L9.312,27.531L11.712,29.131L13.488,26.469Z" fill="#1E8DEB"/>
<path d="M15.047,11.218L15.047,18.2L13.772,18.2L10.734,13.806L10.683,13.806L10.683,18.2L9.207,18.2L9.207,11.218L10.502,11.218L13.516,15.609L13.577,15.609L13.577,11.218L15.047,11.218Z" fill="#1E8DEB"/>
<path d="M16.266,18.2L16.266,11.218L20.889,11.218L20.889,12.435L17.742,12.435L17.742,14.099L20.582,14.099L20.582,15.316L17.742,15.316L17.742,18.2L16.266,18.2Z" fill="#1E8DEB"/>
</svg>
