<svg width="48" height="48" viewBox="0 0 48 48" fill="none" xmlns="http://www.w3.org/2000/svg" xmlns:xlink="http://www.w3.org/1999/xlink">
<path d="M28.4,24C28.4,26.43 26.43,28.4 24,28.4L24,31.6C28.197,31.6 31.6,28.197 31.6,24L28.4,24ZM24,28.4C21.57,28.4 19.6,26.43 19.6,24L16.4,24C16.4,28.197 19.803,31.6 24,31.6L24,28.4ZM19.6,24C19.6,21.57 21.57,19.6 24,19.6L24,16.4C19.803,16.4 16.4,19.803 16.4,24L19.6,24ZM24,19.6C26.43,19.6 28.4,21.57 28.4,24L31.6,24C31.6,19.803 28.197,16.4 24,16.4L24,19.6Z" fill="#201B51"/>
<path d="M38.8,30L40.264,30.646L40.271,30.63L38.8,30ZM39.46,33.64L38.316,34.759L38.329,34.771L39.46,33.64ZM39.58,33.76L38.449,34.891L38.449,34.892L39.58,33.76ZM39.58,39.42L38.449,38.288L38.448,38.289L39.58,39.42ZM33.92,39.42L35.052,38.289L35.051,38.289L33.92,39.42ZM33.8,39.3L34.931,38.169L34.919,38.156L33.8,39.3ZM30.16,38.64L30.79,40.111L30.806,40.104L30.16,38.64ZM28.16,41.66L26.56,41.654L26.56,41.66L28.16,41.66ZM20.16,41.82L21.76,41.82C21.76,41.808 21.76,41.795 21.76,41.783L20.16,41.82ZM18,38.8L17.354,40.264C17.385,40.277 17.416,40.29 17.448,40.302L18,38.8ZM14.36,39.46L13.241,38.316L13.229,38.329L14.36,39.46ZM14.24,39.58L13.109,38.449L13.108,38.449L14.24,39.58ZM8.58,39.58L9.712,38.449L9.711,38.448L8.58,39.58ZM7.407,36.75L9.007,36.75L7.407,36.75ZM8.58,33.92L9.711,35.052L9.711,35.051L8.58,33.92ZM8.7,33.8L9.831,34.931L9.844,34.919L8.7,33.8ZM9.36,30.16L7.889,30.79L7.896,30.806L9.36,30.16ZM6.34,28.16L6.346,26.56L6.34,26.56L6.34,28.16ZM2,24.16L0.4,24.16L2,24.16ZM6,20.16L6,21.76L6,20.16ZM6.18,20.16L6.18,21.76C6.192,21.76 6.205,21.76 6.217,21.76L6.18,20.16ZM9.2,18L7.736,17.354C7.723,17.385 7.71,17.416 7.698,17.448L9.2,18ZM8.54,14.36L9.684,13.241L9.671,13.229L8.54,14.36ZM8.42,14.24L9.551,13.109L9.551,13.108L8.42,14.24ZM8.42,8.58L9.551,9.712L9.552,9.711L8.42,8.58ZM14.08,8.58L12.948,9.711L12.949,9.711L14.08,8.58ZM14.2,8.7L13.069,9.831L13.081,9.844L14.2,8.7ZM17.84,9.36L17.84,7.76C17.618,7.76 17.398,7.806 17.194,7.896L17.84,9.36ZM18,9.36L18,10.96C18.217,10.96 18.431,10.916 18.63,10.831L18,9.36ZM20,6.34L21.6,6.346L21.6,6.34L20,6.34ZM24,2L24,0.4L24,2ZM28,6.18L26.4,6.18L26.4,6.186L28,6.18ZM30,9.2L30.646,7.736L30.63,7.729L30,9.2ZM33.64,8.54L34.759,9.684L34.771,9.671L33.64,8.54ZM33.76,8.42L34.891,9.551L34.892,9.551L33.76,8.42ZM36.59,7.247L36.59,8.847L36.59,7.247ZM39.42,8.42L38.288,9.551L38.289,9.552L39.42,8.42ZM39.42,14.08L38.289,12.948L38.289,12.949L39.42,14.08ZM39.3,14.2L38.169,13.069L38.156,13.081L39.3,14.2ZM38.64,17.84L40.24,17.84C40.24,17.618 40.194,17.398 40.104,17.194L38.64,17.84ZM38.64,18L37.04,18C37.04,18.217 37.084,18.431 37.169,18.63L38.64,18ZM41.66,20L41.654,21.6L41.66,21.6L41.66,20ZM41.82,28L41.82,26.4L41.814,26.4L41.82,28ZM37.336,29.354C36.941,30.25 36.823,31.243 36.998,32.207L40.146,31.636C40.086,31.301 40.127,30.957 40.264,30.646L37.336,29.354ZM36.998,32.207C37.172,33.17 37.632,34.059 38.316,34.759L40.604,32.521C40.366,32.278 40.207,31.97 40.146,31.636L36.998,32.207ZM38.329,34.771L38.449,34.891L40.711,32.629L40.591,32.509L38.329,34.771ZM38.449,34.892C38.672,35.115 38.849,35.38 38.97,35.671L41.926,34.446C41.644,33.766 41.231,33.148 40.711,32.628L38.449,34.892ZM38.97,35.671C39.091,35.962 39.153,36.275 39.153,36.59L42.353,36.59C42.353,35.854 42.208,35.125 41.926,34.446L38.97,35.671ZM39.153,36.59C39.153,36.905 39.091,37.218 38.97,37.509L41.926,38.734C42.208,38.055 42.353,37.326 42.353,36.59L39.153,36.59ZM38.97,37.509C38.849,37.8 38.672,38.065 38.449,38.288L40.711,40.552C41.231,40.032 41.644,39.414 41.926,38.734L38.97,37.509ZM38.448,38.289C38.225,38.512 37.96,38.689 37.669,38.81L38.894,41.766C39.574,41.484 40.192,41.071 40.712,40.551L38.448,38.289ZM37.669,38.81C37.378,38.931 37.065,38.993 36.75,38.993L36.75,42.193C37.486,42.193 38.215,42.048 38.894,41.766L37.669,38.81ZM36.75,38.993C36.435,38.993 36.122,38.931 35.831,38.81L34.606,41.766C35.285,42.048 36.014,42.193 36.75,42.193L36.75,38.993ZM35.831,38.81C35.54,38.689 35.275,38.512 35.052,38.289L32.788,40.551C33.308,41.071 33.926,41.484 34.606,41.766L35.831,38.81ZM35.051,38.289L34.931,38.169L32.669,40.431L32.789,40.551L35.051,38.289ZM34.919,38.156C34.219,37.472 33.33,37.012 32.367,36.838L31.796,39.986C32.13,40.047 32.438,40.206 32.681,40.444L34.919,38.156ZM32.367,36.838C31.403,36.663 30.41,36.781 29.514,37.176L30.806,40.104C31.117,39.967 31.461,39.926 31.796,39.986L32.367,36.838ZM29.53,37.169C28.651,37.546 27.902,38.171 27.375,38.968L30.043,40.735C30.226,40.458 30.486,40.241 30.79,40.111L29.53,37.169ZM27.375,38.968C26.847,39.764 26.564,40.698 26.56,41.654L29.76,41.666C29.761,41.335 29.86,41.011 30.043,40.735L27.375,38.968ZM26.56,41.66L26.56,42L29.76,42L29.76,41.66L26.56,41.66ZM26.56,42C26.56,42.637 26.307,43.247 25.857,43.697L28.12,45.96C29.17,44.91 29.76,43.485 29.76,42L26.56,42ZM25.857,43.697C25.407,44.147 24.797,44.4 24.16,44.4L24.16,47.6C25.645,47.6 27.07,47.01 28.12,45.96L25.857,43.697ZM24.16,44.4C23.523,44.4 22.913,44.147 22.463,43.697L20.2,45.96C21.25,47.01 22.675,47.6 24.16,47.6L24.16,44.4ZM22.463,43.697C22.013,43.247 21.76,42.637 21.76,42L18.56,42C18.56,43.485 19.15,44.91 20.2,45.96L22.463,43.697ZM21.76,42L21.76,41.82L18.56,41.82L18.56,42L21.76,42ZM21.76,41.783C21.737,40.8 21.418,39.846 20.846,39.047L18.244,40.908C18.442,41.186 18.552,41.516 18.56,41.857L21.76,41.783ZM20.846,39.047C20.274,38.247 19.475,37.638 18.552,37.298L17.448,40.302C17.768,40.419 18.045,40.631 18.244,40.908L20.846,39.047ZM18.646,37.336C17.75,36.941 16.757,36.823 15.793,36.998L16.364,40.146C16.698,40.086 17.043,40.127 17.354,40.264L18.646,37.336ZM15.793,36.998C14.83,37.172 13.941,37.632 13.241,38.316L15.479,40.604C15.722,40.366 16.03,40.207 16.364,40.146L15.793,36.998ZM13.229,38.329L13.109,38.449L15.371,40.711L15.491,40.591L13.229,38.329ZM13.108,38.449C12.885,38.672 12.62,38.849 12.329,38.97L13.554,41.926C14.234,41.644 14.852,41.231 15.372,40.711L13.108,38.449ZM12.329,38.97C12.038,39.091 11.725,39.153 11.41,39.153L11.41,42.353C12.146,42.353 12.875,42.208 13.554,41.926L12.329,38.97ZM11.41,39.153C11.095,39.153 10.782,39.091 10.491,38.97L9.266,41.926C9.945,42.208 10.674,42.353 11.41,42.353L11.41,39.153ZM10.491,38.97C10.2,38.849 9.935,38.672 9.712,38.449L7.448,40.711C7.968,41.231 8.586,41.644 9.266,41.926L10.491,38.97ZM9.711,38.448C9.488,38.225 9.311,37.96 9.19,37.669L6.234,38.894C6.516,39.574 6.929,40.192 7.449,40.712L9.711,38.448ZM9.19,37.669C9.069,37.378 9.007,37.065 9.007,36.75L5.807,36.75C5.807,37.486 5.952,38.215 6.234,38.894L9.19,37.669ZM9.007,36.75C9.007,36.435 9.069,36.122 9.19,35.831L6.234,34.606C5.952,35.285 5.807,36.014 5.807,36.75L9.007,36.75ZM9.19,35.831C9.311,35.54 9.488,35.275 9.711,35.052L7.449,32.788C6.929,33.308 6.516,33.926 6.234,34.606L9.19,35.831ZM9.711,35.051L9.831,34.931L7.569,32.669L7.449,32.789L9.711,35.051ZM9.844,34.919C10.528,34.219 10.988,33.33 11.162,32.367L8.014,31.796C7.953,32.13 7.794,32.438 7.556,32.681L9.844,34.919ZM11.162,32.367C11.337,31.403 11.219,30.41 10.824,29.514L7.896,30.806C8.033,31.117 8.074,31.461 8.014,31.796L11.162,32.367ZM10.831,29.53C10.454,28.651 9.829,27.902 9.032,27.375L7.265,30.043C7.542,30.226 7.759,30.486 7.889,30.79L10.831,29.53ZM9.032,27.375C8.236,26.847 7.302,26.564 6.346,26.56L6.334,29.76C6.665,29.761 6.989,29.86 7.265,30.043L9.032,27.375ZM6.34,26.56L6,26.56L6,29.76L6.34,29.76L6.34,26.56ZM6,26.56C5.363,26.56 4.753,26.307 4.303,25.857L2.04,28.12C3.09,29.17 4.515,29.76 6,29.76L6,26.56ZM4.303,25.857C3.853,25.407 3.6,24.797 3.6,24.16L0.4,24.16C0.4,25.645 0.99,27.07 2.04,28.12L4.303,25.857ZM3.6,24.16C3.6,23.523 3.853,22.913 4.303,22.463L2.04,20.2C0.99,21.25 0.4,22.675 0.4,24.16L3.6,24.16ZM4.303,22.463C4.753,22.013 5.363,21.76 6,21.76L6,18.56C4.515,18.56 3.09,19.15 2.04,20.2L4.303,22.463ZM6,21.76L6.18,21.76L6.18,18.56L6,18.56L6,21.76ZM6.217,21.76C7.2,21.737 8.154,21.418 8.953,20.846L7.092,18.244C6.814,18.442 6.484,18.552 6.143,18.56L6.217,21.76ZM8.953,20.846C9.753,20.274 10.362,19.475 10.702,18.552L7.698,17.448C7.581,17.768 7.369,18.045 7.092,18.244L8.953,20.846ZM10.664,18.646C11.059,17.75 11.177,16.757 11.002,15.793L7.854,16.364C7.914,16.699 7.873,17.043 7.736,17.354L10.664,18.646ZM11.002,15.793C10.828,14.83 10.368,13.941 9.684,13.241L7.396,15.479C7.634,15.722 7.793,16.03 7.854,16.364L11.002,15.793ZM9.671,13.229L9.551,13.109L7.289,15.371L7.409,15.491L9.671,13.229ZM9.551,13.108C9.328,12.885 9.151,12.62 9.03,12.329L6.074,13.554C6.356,14.234 6.769,14.852 7.289,15.372L9.551,13.108ZM9.03,12.329C8.909,12.038 8.847,11.725 8.847,11.41L5.647,11.41C5.647,12.146 5.792,12.875 6.074,13.554L9.03,12.329ZM8.847,11.41C8.847,11.095 8.909,10.782 9.03,10.491L6.074,9.266C5.792,9.945 5.647,10.674 5.647,11.41L8.847,11.41ZM9.03,10.491C9.151,10.2 9.328,9.935 9.551,9.712L7.289,7.448C6.769,7.968 6.356,8.586 6.074,9.266L9.03,10.491ZM9.552,9.711C9.775,9.488 10.04,9.311 10.331,9.19L9.106,6.234C8.426,6.516 7.808,6.929 7.288,7.449L9.552,9.711ZM10.331,9.19C10.622,9.069 10.935,9.007 11.25,9.007L11.25,5.807C10.514,5.807 9.785,5.952 9.106,6.234L10.331,9.19ZM11.25,9.007C11.565,9.007 11.878,9.069 12.169,9.19L13.394,6.234C12.715,5.952 11.986,5.807 11.25,5.807L11.25,9.007ZM12.169,9.19C12.46,9.311 12.725,9.488 12.948,9.711L15.212,7.449C14.692,6.929 14.074,6.516 13.394,6.234L12.169,9.19ZM12.949,9.711L13.069,9.831L15.331,7.569L15.211,7.449L12.949,9.711ZM13.081,9.844C13.781,10.528 14.67,10.988 15.633,11.162L16.204,8.014C15.87,7.953 15.562,7.794 15.319,7.556L13.081,9.844ZM15.633,11.162C16.597,11.337 17.59,11.219 18.486,10.824L17.194,7.896C16.883,8.033 16.539,8.074 16.204,8.014L15.633,11.162ZM17.84,10.96L18,10.96L18,7.76L17.84,7.76L17.84,10.96ZM18.63,10.831C19.509,10.454 20.258,9.829 20.785,9.032L18.117,7.266C17.934,7.542 17.674,7.759 17.37,7.889L18.63,10.831ZM20.785,9.032C21.313,8.236 21.596,7.302 21.6,6.346L18.4,6.334C18.399,6.665 18.3,6.989 18.117,7.266L20.785,9.032ZM21.6,6.34L21.6,6L18.4,6L18.4,6.34L21.6,6.34ZM21.6,6C21.6,5.363 21.853,4.753 22.303,4.303L20.04,2.04C18.99,3.09 18.4,4.515 18.4,6L21.6,6ZM22.303,4.303C22.753,3.853 23.363,3.6 24,3.6L24,0.4C22.515,0.4 21.09,0.99 20.04,2.04L22.303,4.303ZM24,3.6C24.637,3.6 25.247,3.853 25.697,4.303L27.96,2.04C26.91,0.99 25.485,0.4 24,0.4L24,3.6ZM25.697,4.303C26.147,4.753 26.4,5.363 26.4,6L29.6,6C29.6,4.515 29.01,3.09 27.96,2.04L25.697,4.303ZM26.4,6L26.4,6.18L29.6,6.18L29.6,6L26.4,6ZM26.4,6.186C26.404,7.142 26.687,8.076 27.215,8.872L29.883,7.105C29.7,6.829 29.601,6.505 29.6,6.174L26.4,6.186ZM27.215,8.872C27.742,9.669 28.491,10.294 29.37,10.671L30.63,7.729C30.326,7.599 30.066,7.382 29.883,7.105L27.215,8.872ZM29.354,10.664C30.25,11.059 31.243,11.177 32.207,11.002L31.636,7.854C31.301,7.914 30.957,7.873 30.646,7.736L29.354,10.664ZM32.207,11.002C33.17,10.828 34.059,10.368 34.759,9.684L32.521,7.396C32.278,7.634 31.97,7.793 31.636,7.854L32.207,11.002ZM34.771,9.671L34.891,9.551L32.629,7.289L32.509,7.409L34.771,9.671ZM34.892,9.551C35.115,9.328 35.38,9.151 35.671,9.03L34.446,6.074C33.766,6.356 33.148,6.769 32.628,7.289L34.892,9.551ZM35.671,9.03C35.962,8.909 36.275,8.847 36.59,8.847L36.59,5.647C35.854,5.647 35.125,5.792 34.446,6.074L35.671,9.03ZM36.59,8.847C36.905,8.847 37.218,8.909 37.509,9.03L38.734,6.074C38.055,5.792 37.326,5.647 36.59,5.647L36.59,8.847ZM37.509,9.03C37.8,9.151 38.065,9.328 38.288,9.551L40.552,7.289C40.032,6.769 39.414,6.356 38.734,6.074L37.509,9.03ZM38.289,9.552C38.512,9.775 38.689,10.04 38.81,10.331L41.766,9.106C41.484,8.426 41.071,7.808 40.551,7.288L38.289,9.552ZM38.81,10.331C38.931,10.622 38.993,10.935 38.993,11.25L42.193,11.25C42.193,10.514 42.048,9.785 41.766,9.106L38.81,10.331ZM38.993,11.25C38.993,11.565 38.931,11.878 38.81,12.169L41.766,13.394C42.048,12.715 42.193,11.986 42.193,11.25L38.993,11.25ZM38.81,12.169C38.689,12.46 38.512,12.725 38.289,12.948L40.551,15.212C41.071,14.692 41.484,14.074 41.766,13.394L38.81,12.169ZM38.289,12.949L38.169,13.069L40.431,15.331L40.551,15.211L38.289,12.949ZM38.156,13.081C37.472,13.781 37.012,14.67 36.838,15.633L39.986,16.204C40.047,15.87 40.206,15.562 40.444,15.319L38.156,13.081ZM36.838,15.633C36.663,16.597 36.781,17.59 37.176,18.486L40.104,17.194C39.967,16.883 39.926,16.538 39.986,16.204L36.838,15.633ZM37.04,17.84L37.04,18L40.24,18L40.24,17.84L37.04,17.84ZM37.169,18.63C37.546,19.509 38.171,20.258 38.968,20.785L40.735,18.117C40.458,17.934 40.241,17.674 40.111,17.37L37.169,18.63ZM38.968,20.785C39.764,21.313 40.698,21.596 41.654,21.6L41.666,18.4C41.335,18.399 41.011,18.3 40.735,18.117L38.968,20.785ZM41.66,21.6L42,21.6L42,18.4L41.66,18.4L41.66,21.6ZM42,21.6C42.637,21.6 43.247,21.853 43.697,22.303L45.96,20.04C44.91,18.99 43.485,18.4 42,18.4L42,21.6ZM43.697,22.303C44.147,22.753 44.4,23.363 44.4,24L47.6,24C47.6,22.515 47.01,21.09 45.96,20.04L43.697,22.303ZM44.4,24C44.4,24.637 44.147,25.247 43.697,25.697L45.96,27.96C47.01,26.91 47.6,25.485 47.6,24L44.4,24ZM43.697,25.697C43.247,26.147 42.637,26.4 42,26.4L42,29.6C43.485,29.6 44.91,29.01 45.96,27.96L43.697,25.697ZM42,26.4L41.82,26.4L41.82,29.6L42,29.6L42,26.4ZM41.814,26.4C40.858,26.404 39.924,26.687 39.128,27.215L40.895,29.883C41.171,29.7 41.495,29.601 41.826,29.6L41.814,26.4ZM39.128,27.215C38.331,27.742 37.706,28.491 37.329,29.37L40.271,30.63C40.401,30.326 40.618,30.066 40.895,29.883L39.128,27.215Z" fill="#201B51"/>
</svg>
