<svg width="42" height="42" viewBox="0 0 42 42" fill="none" xmlns="http://www.w3.org/2000/svg" xmlns:xlink="http://www.w3.org/1999/xlink">
<path d="M32.4,35.75C32.4,36.634 33.116,37.35 34,37.35C34.884,37.35 35.6,36.634 35.6,35.75L32.4,35.75ZM27,25.25L27,23.65L27,25.25ZM13,25.25L13,23.65L13,25.25ZM6,32.25L4.4,32.25L6,32.25ZM4.4,35.75C4.4,36.634 5.116,37.35 6,37.35C6.884,37.35 7.6,36.634 7.6,35.75L4.4,35.75ZM35.6,35.75L35.6,32.25L32.4,32.25L32.4,35.75L35.6,35.75ZM35.6,32.25C35.6,29.969 34.694,27.782 33.081,26.169L30.818,28.432C31.831,29.444 32.4,30.818 32.4,32.25L35.6,32.25ZM33.081,26.169C31.468,24.556 29.281,23.65 27,23.65L27,26.85C28.432,26.85 29.806,27.419 30.818,28.432L33.081,26.169ZM27,23.65L13,23.65L13,26.85L27,26.85L27,23.65ZM13,23.65C10.719,23.65 8.532,24.556 6.919,26.169L9.182,28.432C10.194,27.419 11.568,26.85 13,26.85L13,23.65ZM6.919,26.169C5.306,27.782 4.4,29.969 4.4,32.25L7.6,32.25C7.6,30.818 8.169,29.444 9.182,28.432L6.919,26.169ZM4.4,32.25L4.4,35.75L7.6,35.75L7.6,32.25L4.4,32.25Z" fill="#7E8185"/>
<path d="M25.4,11.25C25.4,14.232 22.982,16.65 20,16.65L20,19.85C24.75,19.85 28.6,16 28.6,11.25L25.4,11.25ZM20,16.65C17.018,16.65 14.6,14.232 14.6,11.25L11.4,11.25C11.4,16 15.25,19.85 20,19.85L20,16.65ZM14.6,11.25C14.6,8.268 17.018,5.85 20,5.85L20,2.65C15.25,2.65 11.4,6.5 11.4,11.25L14.6,11.25ZM20,5.85C22.982,5.85 25.4,8.268 25.4,11.25L28.6,11.25C28.6,6.5 24.75,2.65 20,2.65L20,5.85Z" fill="#7E8185"/>
</svg>
