<svg width="32" height="32" viewBox="0 0 32 32" fill="none" xmlns="http://www.w3.org/2000/svg" xmlns:xlink="http://www.w3.org/1999/xlink">
<path d="M24.067,27C24.067,27.884 24.783,28.6 25.667,28.6C26.55,28.6 27.267,27.884 27.267,27L24.067,27ZM20.333,19L20.333,17.4L20.333,19ZM9.667,19L9.667,17.4L9.667,19ZM4.333,24.333L2.733,24.333L4.333,24.333ZM2.733,27C2.733,27.884 3.45,28.6 4.333,28.6C5.217,28.6 5.933,27.884 5.933,27L2.733,27ZM27.267,27L27.267,24.333L24.067,24.333L24.067,27L27.267,27ZM27.267,24.333C27.267,22.494 26.536,20.731 25.236,19.431L22.973,21.693C23.673,22.394 24.067,23.343 24.067,24.333L27.267,24.333ZM25.236,19.431C23.936,18.13 22.172,17.4 20.333,17.4L20.333,20.6C21.323,20.6 22.273,20.993 22.973,21.693L25.236,19.431ZM20.333,17.4L9.667,17.4L9.667,20.6L20.333,20.6L20.333,17.4ZM9.667,17.4C7.828,17.4 6.064,18.13 4.764,19.431L7.027,21.693C7.727,20.993 8.677,20.6 9.667,20.6L9.667,17.4ZM4.764,19.431C3.464,20.731 2.733,22.494 2.733,24.333L5.933,24.333C5.933,23.343 6.327,22.394 7.027,21.693L4.764,19.431ZM2.733,24.333L2.733,27L5.933,27L5.933,24.333L2.733,24.333Z" fill="#1E8DEB"/>
<path d="M18.733,8.333C18.733,10.395 17.062,12.067 15,12.067L15,15.267C18.829,15.267 21.933,12.163 21.933,8.333L18.733,8.333ZM15,12.067C12.938,12.067 11.267,10.395 11.267,8.333L8.067,8.333C8.067,12.163 11.171,15.267 15,15.267L15,12.067ZM11.267,8.333C11.267,6.271 12.938,4.6 15,4.6L15,1.4C11.171,1.4 8.067,4.504 8.067,8.333L11.267,8.333ZM15,4.6C17.062,4.6 18.733,6.271 18.733,8.333L21.933,8.333C21.933,4.504 18.829,1.4 15,1.4L15,4.6Z" fill="#1E8DEB"/>
</svg>
